<?xml version="1.0" encoding="UTF-8"?> <!-- Generator: Adobe Illustrator 24.2.0, SVG Export Plug-In . SVG Version: 6.00 Build 0) --> <svg xmlns="http://www.w3.org/2000/svg" xmlns:xlink="http://www.w3.org/1999/xlink" version="1.1" id="about" x="0px" y="0px" viewBox="0 0 700 440" style="enable-background:new 0 0 700 440;" xml:space="preserve"> <style type="text/css"> .st0{fill:#95CA59;} .st1{fill:#015245;} .st2{fill:#1766B0;} .st3{fill:#F58257;} .st4{fill:#B84096;} .st5{fill:#5FAD6E;} .st6{fill:#D5634B;} .st7{fill:#FFFFFF;} .st8{fill:#D6E9BD;} .st9{fill:#1B81C4;} .st10{fill:#087262;} .st11{fill:none;stroke:#5FAD6E;stroke-width:1.4642;stroke-miterlimit:10;} .st12{fill:none;stroke:#95CA59;stroke-width:1.4642;stroke-miterlimit:10;} .st13{fill:#DEF0EE;} .st14{fill:#CDDFEE;} .st15{fill:#D6E9BD;stroke:#95CA59;stroke-width:1.0927;stroke-miterlimit:10;} .st16{fill:#D6E9BD;stroke:#D6E9BD;stroke-width:1.0927;stroke-miterlimit:10;} .st17{fill:#F58457;} .st18{fill:#5A969C;} .st19{fill:#4C8186;} .st20{fill:#437479;} .st21{fill:#D6634A;} </style> <g> <path class="st0" d="M404.2,42.2c-99.9,28.8-255.4,9.5-267.4,137.1c-8.1,60.9,12.2,140.7,36.3,187.1c11.7,22.1,25.5,35.3,38.6,45.5 c145.1,112.7,304.7-152.3,327-324.5c3.6-27.6-18.2-46.9-31.5-55.3C483.2,16,455.1,30.8,404.2,42.2z"></path> <path class="st1" d="M413.6,124.7c0,0,20.9-25.6,34.9-39.4s37.3-52.8,5.2-60.4s-15.9-17.9-34-22.4c-18.1-4.4-30.6,1.1-35.7,14.2 C379,29.8,364.4,50.8,353.3,48c-11-2.8-66-12.9-57.9,38.8S399.7,187.9,413.6,124.7z"></path> <path class="st2" d="M422.8,96.2c0,0,8.1,1.5,11.3,32.5c3.3,30.9,6.6,67.5-0.4,69.2s-26.4-6.5-21.9-37.7S422.8,96.2,422.8,96.2z"></path> <path class="st3" d="M473.1,108.9c-0.6-3.4-1.6-6.7-3-9.8c-0.6,1.6-0.8,3.3-0.5,4.9c0.3,3.8,1.7,9.6,0.1,11.7 c-2.8,3.7-2.4,4.6-2.7,2.1c-0.4-2.5,1.8-6.1-1.3-10.8c-0.2,3.6-0.7,7.2-1.4,10.7c-1,4.5,0.7,10.6-3.4,19.2 c-9.7,10.8-23.8,26.6-32.6,40c-9.5,14.4-12.7,18.8-7.1,20.1c11.6,2.7,19.9-9.2,22.9-14.9c5.8-10.6,20.1-43.4,20.1-43.4l0.1-0.2 c4.1-4.9,8.6-12.3,9.2-15C474,118.7,473.9,113.7,473.1,108.9z"></path> <path class="st3" d="M472.9,123.9c0,0,3.3-9.4,3.2-11.4c-0.1-1.4-1.8-7.8-1.8-7.8s-1.5,3.4-1,6S472.9,123.9,472.9,123.9z"></path> <path class="st4" d="M418,207.7c-6.4-12.4-29.9-9.3-46.5,0H418z"></path> <path class="st2" d="M360.1,207.7H421l-3.2-53.7c0,0,6.9-54,7.4-56.7c0.5-2.7-27.5-15.6-32-10.7C384.9,95.5,365,88,365,88 S370.3,171.2,360.1,207.7z"></path> <path class="st2" d="M372.2,91.8c-8.1-6.5-13.1-6.9-20,9.6c-15.4,37-15.5,93.3-0.1,96.7c9.1,2,12-3.2,16.4-8.8 C372.9,183.7,379.1,97.3,372.2,91.8z"></path> <path class="st5" d="M453.2,159.4c-0.9,2-2.9,3.2-5,3.4h-29.5c-1.3,0.2-2.4-0.7-2.6-2c-0.1-0.5,0-0.9,0.2-1.4l19.1-46.1 c0.7-1.8,3-3.7,5-3.7H470c1.4,0,2.6,1.1,2.6,2.5c0,0.4-0.1,0.8-0.3,1.2L453.2,159.4z"></path> <path class="st3" d="M425.8,136.1c0,0-3.2,5.6-1.1,6.1c2.1,0.5,15.5-6.9,15.5-6.9l4.3-0.5l-10.5,8.3c3.4-2.5,7-4.7,10.8-6.6 c2.3-1,3.9-0.5,4.5-0.7c1.6-0.5-13.8,9.6-13.8,9.6l6.6-2.2c0,0,3.5-0.8,1.8,1.2c-1,1.1-2.4,1.3-4.4,4.1c-2,2.8-11.5,11.1-21,12.3 c-2.9,0.4-5.7,1.5-8,3.2l-45.1,29.3c0,0-20.8,3.6-18.4-8c2.4-11.6,41.8-23.8,56.1-28.4c9.3-3,10-5.6,12-7.6 S420.8,138.7,425.8,136.1z"></path> <path class="st3" d="M411.1,67.7l-13.4-14.7c-2,10-3.5,20.1-4.4,30.3c0,2.7-1.5,5.1-3.9,6.4l10.6,14.1c1,0.3,2,0.5,3,0.5 c0.7,0,1.6,0,2.7,0c0.5-0.4,0.9-0.9,1.4-1.3c0.3-0.3,0.5-0.6,0.8-0.9l0,0l0.2-0.3c0.8-1.1,1.5-2.3,2.2-3.5c0.2-0.4,0.4-0.7,0.5-1.1 c0.5-1.1,0.9-2.2,1.4-3.3C404.5,84.5,411.1,67.7,411.1,67.7z"></path> <path class="st6" d="M408.8,81.9c0-0.9,0.1-1.9,0.2-2.8c0.1-0.6,0.2-1.1,0.5-1.6c0.5-2.4,1.3-4.7,2.3-7l-16.1-14.7 c-1.9,7.6-3.4,15.4-4.4,23.1c0.1,0.4,0.2,0.7,0.3,1.1c0.1,0.1,0.1,0.2,0.1,0.3c0.2,0.7,0.4,1.5,0.6,2.2c1,2.6,2.4,4.3,4.8,7.2 c3,3.6,7.2,1.4,11.6-3.1C408.6,85,408.6,83.5,408.8,81.9z"></path> <path class="st3" d="M384.7,53.2c2.9-7.9,11-6.7,16.9-10.1c4.9-2.8,9.1-15.9,15.5-14.5c21.2,4.6,6.2,58.3-16.7,56.5 c-13.3-1.1-17.5-14-16.8-26.2C383.7,56.9,384.1,55,384.7,53.2z"></path> <path class="st7" d="M432.6,223.1H321.1c0-0.1,0-0.2,0-0.3c0-12.4,10-22.4,22.3-22.4c2.1,0,4.2,0.3,6.2,0.9 c2.3-18,18.7-30.8,36.8-28.5c16.6,2.1,29,16.3,28.8,33v0.2C424.2,207,431.4,214.1,432.6,223.1z"></path> <path class="st6" d="M214.2,221.3c0-0.1-0.1-0.2-0.1-0.3v-0.1c0,0,0-0.1-0.1-0.1l-0.1-0.3c-0.5-1.2-1.1-2.4-1.8-3.5h-43.7 c0,0-12.8,6.7-0.6,17.8c9.9,9,20.8,2.7,26.2,0.2c4.2-2,15.6-9.4,20.5-12.7C214.4,222,214.3,221.6,214.2,221.3z"></path> <path class="st3" d="M214.5,222.4c-0.1-0.3-0.2-0.7-0.3-1.1c0-0.1-0.1-0.2-0.1-0.3v-0.1c0,0,0-0.1-0.1-0.1l-0.1-0.3 c-0.2-0.6-0.5-1.2-0.8-1.8c-10.9,1.2-29.6,3.2-35.7,3.9c-5.8,0.7-11.2,3.4-12.7,6.9c0.7,1.6,1.1,4,3,5.3 c10.4,7.4,19.3,4.4,24.8,1.8C196.9,234.6,209.4,226,214.5,222.4L214.5,222.4z"></path> <path class="st8" d="M225.2,221.7c4.5,13,7.5,40,12.6,55.5h61.6l4.1-33c0,0,13.4-5.7,16.2-2.7c25.8,28.1,18.4-58-17-76.9 c-7.6-4-54.1-2.7-54.1-2.7s-30.6,5.4-67.7,56.8C179.5,220.5,220,206.7,225.2,221.7z"></path> <path class="st3" d="M251.4,197.2c3.6-1.7,7.4-3.1,11.1-4.5L246,180.9l-11.5,0.5c0,0-4.5,3-7.1,4.9l8-1.7l-17.8,7.3 c0,0-6.9,3.1-5.2,3.8c2.1,0.8,16.1-3.8,16.1-3.8c3.6,1,7.1,2.3,10.5,3.8c3.6,1.6,8.5,1.8,12.2,1.7 C251.2,197.3,251.3,197.2,251.4,197.2z"></path> <path class="st3" d="M317,215.5c-18.7-7.4-45.8-19.4-54.8-23c-2.4,0.7-9.8,1.3-12.2,2c4.3,6.4,32.4,34.2,53.6,40.4 c23.4,6.8,25,10.2,28.4,5.3C335.3,235.2,334.6,222.5,317,215.5z"></path> <path class="st9" d="M232.2,213.8c0.5,0.9,0.2,2-0.7,2.5c-0.3,0.2-0.6,0.2-1,0.2h-71.8c-1.7-0.1-3.1-1.2-3.7-2.7l-18.2-49.7 c-0.5-1.5,0.2-2.3,1.7-2.3h71.8c1.6-0.1,3,0.8,3.7,2.3L232.2,213.8z"></path> <path class="st9" d="M258.4,221.7c-0.1,1.5-1.4,2.6-2.9,2.5h-95.8c-1.5,0.1-2.7-1-2.8-2.5c0,0,0,0,0,0v-2.4c0-1.5,1.3-2.8,2.8-2.9 h95.8c1.6,0.1,2.8,1.3,2.9,2.9V221.7z"></path> <path class="st6" d="M206.8,228.2l15,3.1l19.7-7.6c-3.3-1.1-6.9-1.2-10.3-0.2c-6.1,1.6-8.9,0.6-8.9,0.6l-5.5-3.7l4.2-4.3l2.3-4.4 l-9.2,4.5l-5.6,5.5"></path> <path class="st3" d="M211.5,225.2c-0.8-0.2-1.4-0.7-1.8-1.4h-1.2c-1.2,1.4-2.6,2.8-4,4.1c0,0.1,0.1,0.2,0.1,0.3l15,3.1 c3.7-0.5,5.6-1.2,6.4-1.8C221,228.4,216.3,226.6,211.5,225.2z"></path> <path class="st6" d="M325.1,242.9c-6.3-0.7-23.3-9.2-32.7-14.8c-12.8-7.7-33.7-26.2-39.6-31c-0.1,0.2-0.1,0.4-0.2,0.5 c-0.6,1.3,9.1,9.4,10.7,11c4.5,4.5,9.2,8.7,14.1,12.6c5.2,4.4,10.6,8.6,16.3,12.3c5.6,3.6,11.7,6.4,17.5,9.8 c17.8,5.1,16,3.8,19-0.1C327.6,244.7,329.2,243.3,325.1,242.9z"></path> <path class="st3" d="M274.7,168.5c1.4-1.5,2.8-3,4.2-4.4c-0.2-1-0.3-1.7-0.1-1.7c-0.6-0.7-1.3-1.3-2-1.8c-5.3-4.1-6.7-20-6.7-20 s-23.5,2.9-14.7,12c4,4.2,3.4,10.3,2,15.9c0.1,0.1,0.1,0.3,0.1,0.4c0.1,0.3,0.1,0.5,0.2,0.8c0,0.1,0,0.1,0.1,0.2 c0.3,0.5,0.5,0.9,0.8,1.4c0.1,0.2,0.2,0.3,0.3,0.5c0.1,0.1,0.1,0.1,0.2,0.2c0.4,0.4,0.8,0.9,1.2,1.3c0.8,0.8,1.7,1.6,2.6,2.4 l1.3,1.1l0.2,0.2l0.1,0.1l0.8,0.6l1.8,1.4C269.3,175.2,271.8,171.7,274.7,168.5z"></path> <path class="st1" d="M256.4,140.9c0,0,24.1-7.2,30.3-13.7c6.1-6.5-6.2-5.6-8-16.7s-10.9-39.3-16.1-22.1 c-5.2,17.3,3.8,22.9,2.9,14.9c-1-8,2-30-20.7-25.6s-28.7,20-8.7,24.7c19.9,4.7-25.1-17.1-22.2-2.2c2.9,14.9,16.1,11.5,20.7,10.7 c4.6-0.8-19.8-9-15.3,6.6C223.6,133.1,238.1,138.3,256.4,140.9z"></path> <path class="st6" d="M272.8,140.4c0,0-3.7,5.1,3.8,21.9c0,0-9.9,5.8-17.5-1c0-3.3-1.4-6.4-3.7-8.7 C246.6,143.5,272.8,140.4,272.8,140.4z"></path> <path class="st3" d="M235.7,109.2c0,0-2.5,12,2.6,29.7s14.9,21.4,29.4,16c14.6-5.4,13.4-23.6,12.2-27.9c-1.1-4.3,13.5-3.5,8.4-13 c-5.1-9.5-10.4-4.5-10.4-0.4c0.1,4.1-1.6,9.7-5.4,7.1c-3.8-2.6-0.5-19.5-7.2-15.6C258.7,108.9,246.8,114.5,235.7,109.2z"></path> <path class="st7" d="M359,328.1c0.2-1,0.3-2.1,0.3-3.2c0-12.2-9.9-22.2-22.2-22.2c-2.3,0-4.7,0.4-6.9,1.2 c-3.6-25-26.8-42.3-51.8-38.7c-1.1,0.2-2.3,0.4-3.4,0.6c-20.7-23-56.2-24.8-79.2-4.1c-8.3,7.5-14.2,17.4-16.9,28.3h-0.1 c-18.4,0-33.2,14.9-33.2,33.2c0,0,0,0,0,0c0,1.6,0.1,3.2,0.4,4.8H359z"></path> <path class="st6" d="M349.2,392.9l18.7,25.3c0,0,14.1-19.3,12.2-26.1c-1.9-6.9-10.3-18.4-13.6-24.4"></path> <path class="st10" d="M316.2,235.3c0,0-29.7,5.2-31.9,22.9c-2.2,17.8-0.6,20.3-9.7,27.1c-9.1,6.8-22.5,28.7,4.4,37.7 c26.9,9,40.6-5.8,54-0.3c13.4,5.5,35.3-0.3,40-9c4.7-8.7,6.9-28.7-9.1-36.5c-15.9-7.7-11.1-21.7-12.8-25.5 C345.8,240.1,334.6,233.7,316.2,235.3z"></path> <path class="st2" d="M270,416.2c0,0-46.9,23.2,1-79.7c2.4-5.1,21.6-26.2,42.5-16.8c20.9,9.4,17.4,6.1,33.8,10.3 c16.4,4.3,23.2,3.3,26,16.7c2.9,13.4-13.2,64-14.5,66.4S270,416.2,270,416.2z"></path> <path class="st8" d="M339.7,327.8c-5.7-1.1-7.9-1.2-19.7-6.7c-2.2,0.8-3,2.4-2.8,5c0,0,4.2,68.1,4.3,91.2 c10.1,0.2,20.2-5.1,28.9-5.1c2.7-12.2,4-62.5-1.1-72.4C346.8,335.1,343.6,331.1,339.7,327.8z"></path> <path class="st3" d="M342.4,332.6c0.1-0.2,0.1-0.3,0.2-0.5c-1.6-2.2-3.6-4.2-4.9-6c-2.5-3.7-0.7-10.1,2.1-16.7 c2.8-6.6-5.1,6.1-20.2,4.9l-1.3,6.4l1.4,12.3c0.8,0.2,1.5,0.7,2,1.4c1.1,1.7,2.4,3.3,3.8,4.8c1.5,1.6,3,3.3,4.5,4.8 c1.2,1.3,2.4,2.6,3.5,4c0.9,0,2.8,2.8,2.8-0.2c0-0.9,1.6-0.5,2.4-0.8C339.6,342.2,340.8,337.4,342.4,332.6z"></path> <path class="st6" d="M341.7,306.9c6.9-15.9-6.1,7-24,5.8l1.1,8.1l1,4.1c9.5-1,14.5-9.8,21.2-16.4L341.7,306.9z"></path> <path class="st3" d="M302,255.4c0,0,6,10.9-2,20.9c-8,10-4.9,6.1-4.9,6.1s10.1,34.6,26.1,34c16.1-0.6,25.3-9.1,28.2-22.8 s-4.9-26.7-4.9-26.7s-19.3,7.9-25.9,6.4C312.1,271.8,312.4,253.5,302,255.4z"></path> <path class="st3" d="M240.7,416.5c0.2,0.3,0.5,0.6,0.7,0.9c4.1,0.6,8.2,0.9,12.4,0.9c12.8,0.5,54.2-1.9,54.2-1.9s3.4,2.2,9.4,2 c4.6-0.2,7.1-1.3,10.1-1.5c3.4-0.1,6.8,0.1,10.1,0.4c1.1,0.1,2.2,0.5,3.1,1.1h5.6c-0.7-0.6-3.5-3.2-2.7-2.8 c8.7,4.1,11.4,1.3,11.4,1.3s-1.6-1.3-1.1-1.2c1.9,0.1,2.3-0.7,2.3-0.7l-13.1-11l-9.1-0.2l-25.2,2.2l-40.1-7.5l6-19.1 c-5.6-1.7-11.3-4.2-17-5.2c-8.1-1.5-8.7,3.9-11.3,10.8c-1.5,3.9-2.7,7.8-3.8,11.8c-0.9,3.6-4.7,12.2-3.8,15.7 C239.3,414,239.9,415.3,240.7,416.5z"></path> <line class="st11" x1="296.9" y1="401.6" x2="288.8" y2="418.4"></line> <line class="st12" x1="300.1" y1="402.3" x2="294" y2="417.5"></line> <path class="st6" d="M344.1,407.1c0,0,6.3,4.1,9.7,6.1l2.4,1.3c0,0-0.3,0.8-2.3,0.7l-8.1-6l-8.5-1L344.1,407.1z"></path> <path class="st6" d="M346.6,418c0,0,0,0.2-0.1,0.2h0l-1.4-1.6C345.8,417.4,346.6,418,346.6,418z"></path> <path class="st6" d="M335.8,412.3l7.5,0.5c2.7,1.9,5.6,3.5,8.7,4.8c-1.8,0-4.4-0.6-8.2-2.3c-0.1,0-0.1-0.1-0.1-0.1l-1.7-1.5 L335.8,412.3z"></path> <path class="st6" d="M248.4,380.2c-1,2.6-2.2,5.2-3.3,7.8c-1.6,5.5-3,11.1-4.4,16.8c2.8-1.5,6.4-5.9,12-8.9 c6.3-3.3,14.4-3.2,14.4-3.2C263.3,391.7,255.8,380.3,248.4,380.2z"></path> <path class="st2" d="M261,353.1c-3.8,6.8-7.3,13.8-10.4,21c-0.2,0.5-0.4,1.1-0.7,1.6c-1.4,4.2-3,8.3-4.9,12.3 c-0.1,0.5-0.3,1-0.4,1.5c4.3,1.1,36.8,9.7,38.5,1.7c1.8-8.5,18.5-67.1,18.5-67.1C284.2,306.8,268.6,340,261,353.1z"></path> <path class="st3" d="M365.6,416.9c0,0,4.9-53.1,6.6-59.1c1.6-6,1.2-19,7-4.5c5.8,14.5,5.8,48.6,6.2,58.6 C385.7,422,367.7,422,365.6,416.9z"></path> <path class="st3" d="M376.3,347.4c-3.1-2.2-6.6-3.8-10.3-4.7c-6.2-1.5-11.9,7.5-15.2,8s-15.6,8.5-16.9,9.5c-1.2,1,0,2.5,4.9,0.5 s12-4,12-4l-7.8,7.5l-3.7,9c0,0,2.3,1.3,4.3-1.5c1.1-1.6,2-3.3,2.7-5l7.4-5.5l-4.1,10l-4.9,10c0,0,3.8,2.8,7-6 c1.8-4.9,7.4-8.5,7.4-8.5l-2.5,8l-2.1,5.7c0,0,1.8,3.2,3.7-0.7c3-6.2,5.3-10.7,5.3-10.7s8.2-4.9,11.1-11.4"></path> <polygon class="st7" points="318.5,324.4 318.5,349.9 320.3,353.3 328.6,345.8 335.7,352.4 "></polygon> <path class="st7" d="M337.2,325.8c1,2.4-1.5,26.6-1.5,26.6l4.1-7.6l7.2,2.6l-2-14.3L337.2,325.8z"></path> <polygon class="st7" points="276.3,159.5 267.2,178.1 266.3,180.5 266.3,180.5 267.8,185 268.1,177.9 277.6,184 283.4,162.6 "></polygon> <polygon class="st7" points="257.4,160 266.5,178.6 267.3,182.8 268.3,184.6 267.1,185.4 262.7,177.5 254.8,182 251.4,163.2 "></polygon> <path class="st8" d="M390,89.7l14.3,13.3c0,0-0.7,8.9-0.7,7.5s-2.4-6.1-2.4-6.1l-5.8,5.8L382.2,91L390,89.7z"></path> <path class="st8" d="M404,109.7c-0.4,0.6-0.3-6.5-0.3-6.5s5.5-11.2,5.8-14.6l5.8,2.4l0.7,18.4l-8.2-7.1"></path> <path class="st13" d="M399,385.6c-0.4,1.4-1.8,2.2-3.1,1.9c0,0,0,0,0,0l-10.7-2.8c-1.4-0.4-2.2-1.8-1.9-3.1c0,0,0,0,0,0l40.6-155.1 c0.4-1.4,1.8-2.2,3.2-1.9l10.7,2.8c1.4,0.4,2.2,1.8,1.9,3.2L399,385.6z"></path> <path class="st14" d="M394.7,386.7c-0.3,0-0.6,0-0.9-0.1l-10.7-2.8l0.5-1.7l10.7,2.8c0.9,0.2,1.8-0.3,2.1-1.2l40.6-155.1l1.7,0.5 l-40.6,155.1C397.6,385.6,396.3,386.7,394.7,386.7z"></path> <path class="st14" d="M444.4,420.7h-40.9v-3.1h40.6c1,0,7.5-1.9,7.5-11.1c0-6.1-21.2-62-35.4-98l3.4-1.4 c3.6,9.2,35.6,90.5,35.6,99.3c0,10.3-7,13.9-10.6,14.4L444.4,420.7z"></path> <path class="st14" d="M392,420.7v-1.9c0-1.4-0.5-1.2-1.9-1.2h-64.3c-1.4,0-4.8-0.2-4.8,1.2v1.9H392z"></path> <path class="st15" d="M190.4,81.6c0.1-0.7,0.3-1.4,0.5-2l1,0.3c-0.2,0.6-0.3,1.3-0.5,2L190.4,81.6z"></path> <path class="st15" d="M191.9,75.7c0.4-1.3,0.8-2.6,1.3-3.9l1,0.4c-0.5,1.2-0.9,2.5-1.3,3.8L191.9,75.7z M195.7,68.4l-0.9-0.4l0,0 c0.5-1.2,1.1-2.5,1.7-3.7l0.9,0.5C196.7,66,196.2,67.2,195.7,68.4z M199.2,61.2l-0.9-0.5c0.7-1.2,1.4-2.4,2.1-3.5l0.9,0.5 C200.6,58.8,199.9,60,199.2,61.2L199.2,61.2z M203.6,54.4l-0.8-0.6c0.8-1.1,1.6-2.2,2.5-3.3l0.8,0.6 C205.2,52.2,204.4,53.3,203.6,54.4z M208.6,48l-0.8-0.7c0.9-1,1.8-2,2.8-3l0.7,0.7C210.4,46,209.5,47,208.6,48z M214.2,42.3 l-0.7-0.8c1-0.9,2-1.8,3.1-2.7l0.7,0.8C216.2,40.5,215.2,41.4,214.2,42.3z M220.4,37.1l-0.6-0.8c1.1-0.8,2.2-1.6,3.3-2.4l0.6,0.9 C222.6,35.5,221.5,36.3,220.4,37.1z M227.1,32.5l-0.5-0.9c1.1-0.7,2.3-1.4,3.5-2.1l0.5,0.9C229.4,31.1,228.2,31.8,227.1,32.5 L227.1,32.5z M234.1,28.6l-0.5-0.9c1.2-0.6,2.4-1.2,3.7-1.7l0.4,0.9C236.5,27.4,235.3,28,234.1,28.6L234.1,28.6z M241.4,25.3 l-0.4-1c1.3-0.5,2.5-1,3.8-1.4l0.3,1C244,24.4,242.6,24.8,241.4,25.3L241.4,25.3z M249.1,22.7l-0.3-1c1.3-0.4,2.6-0.8,3.9-1.1 l0.3,1C251.7,21.9,250.4,22.3,249.1,22.7L249.1,22.7z M256.9,20.7l-0.2-1c1.3-0.3,2.7-0.5,4-0.8l0.2,1 C259.5,20.1,258.2,20.4,256.9,20.7z M264.8,19.3l-0.1-1c1.3-0.2,2.7-0.3,4.1-0.4l0.1,1C267.5,19,266.2,19.2,264.8,19.3L264.8,19.3z M272.9,18.6l-0.1-1c1.4-0.1,2.7-0.1,4.1-0.1v1C275.6,18.5,274.2,18.6,272.9,18.6L272.9,18.6z M280.9,18.6v-1 c1.4,0,2.7,0.1,4.1,0.2l-0.1,1C283.7,18.7,282.3,18.6,280.9,18.6L280.9,18.6z M289,19.2l0.1-1c1.3,0.2,2.7,0.3,4.1,0.5l-0.2,1 C291.7,19.5,290.4,19.3,289,19.2L289,19.2z M297,20.4l0.2-1c1.3,0.3,2.7,0.5,4,0.9l-0.2,1C299.7,20.9,298.4,20.6,297,20.4L297,20.4 z M337.6,37.6c-1.1-0.8-2.2-1.5-3.4-2.2l0.6-0.9c1.1,0.7,2.3,1.5,3.4,2.3L337.6,37.6z M304.9,22.2l0.3-1c1.3,0.4,2.6,0.7,3.9,1.1 l-0.3,1C307.5,22.9,306.2,22.5,304.9,22.2z M330.8,33.3c-1.2-0.7-2.3-1.4-3.5-2l0.5-0.9c1.2,0.6,2.4,1.3,3.6,2L330.8,33.3z M312.6,24.6l0.3-1c1.3,0.5,2.6,1,3.8,1.5l-0.4,1C315.1,25.6,313.8,25.1,312.6,24.6z M323.7,29.4c-1.2-0.6-2.4-1.2-3.6-1.7l0.4-0.9 c1.2,0.5,2.5,1.1,3.7,1.7L323.7,29.4z"></path> <path class="st15" d="M342.6,41.2c-0.5-0.4-1.1-0.8-1.6-1.2l0.6-0.8c0.6,0.4,1.1,0.8,1.6,1.3L342.6,41.2z"></path> <path class="st16" d="M428.5,295.9c-0.6,0-1.1,0-1.7,0v-1c1.3,0,2.7,0,4.1-0.1l0.1,1C430.2,295.9,429.3,295.9,428.5,295.9z M422.7,295.7c-1.4-0.1-2.7-0.3-4.1-0.6l0.2-1c1.3,0.3,2.7,0.4,4,0.6L422.7,295.7z M435.1,295.5l-0.1-1c1.3-0.2,2.7-0.4,4-0.6 l0.2,1C437.8,295.1,436.5,295.3,435.1,295.5L435.1,295.5z M443.3,294l-0.3-1c1.3-0.3,2.6-0.7,3.9-1.1l0.3,1 C445.9,293.3,444.6,293.7,443.3,294z M414.6,294.1c-1.3-0.4-2.6-0.8-3.9-1.3l0.3-1c1.3,0.5,2.6,0.9,3.9,1.2L414.6,294.1z M451.1,291.6l-0.3-1c1.2-0.5,2.5-1,3.8-1.5l0.4,1C453.7,290.6,452.4,291.1,451.1,291.6z M406.8,291.3c-1.2-0.6-2.5-1.2-3.7-1.9 l0.5-0.9c1.2,0.7,2.4,1.3,3.6,1.9L406.8,291.3z M399.6,287.2c-1.1-0.8-2.3-1.6-3.3-2.4l0.6-0.8c1.1,0.8,2.2,1.6,3.3,2.4 L399.6,287.2z M393.2,282.1c-1-0.9-2-1.9-2.9-2.9l0.7-0.7c0.9,1,1.9,1.9,2.9,2.8L393.2,282.1z M387.5,276.1 c-0.9-1.1-1.7-2.2-2.6-3.3l0.8-0.6c0.8,1.1,1.6,2.2,2.5,3.2L387.5,276.1z M382.6,269.4c-0.7-1.1-1.5-2.3-2.2-3.5l0.9-0.5 c0.7,1.2,1.4,2.3,2.1,3.5L382.6,269.4z M378.4,262.3c-0.6-1.2-1.2-2.5-1.8-3.7l0.9-0.4c0.5,1.2,1.1,2.5,1.7,3.7L378.4,262.3z M375.2,254.7c-0.5-1.3-0.9-2.6-1.3-3.9l1-0.3c0.4,1.3,0.8,2.6,1.3,3.9L375.2,254.7z M372.7,246.8c-0.3-1.4-0.6-2.7-0.8-4.1l1-0.2 c0.2,1.3,0.5,2.6,0.8,4L372.7,246.8z M371.3,238.7c-0.1-1.2-0.2-2.3-0.2-3.4c0-0.3,0-0.5,0-0.8h1c0,0.2,0,0.5,0,0.7 c0,1.1,0.1,2.2,0.2,3.3L371.3,238.7z M372.5,230.5l-1-0.2c0.2-1.4,0.6-2.8,1.2-4.1l0.9,0.4C373.1,227.9,372.8,229.2,372.5,230.5 L372.5,230.5z"></path> <polyline class="st5" points="525.5,261.2 446,282.7 442.6,278.9 "></polyline> <polygon class="st8" points="525.5,261.2 476.8,261.7 455.7,268.6 442.6,278.9 "></polygon> <polygon class="st8" points="433.9,296.9 439.2,283.2 525,261.3 459.9,295.7 "></polygon> <polygon class="st5" points="450.7,295.7 450.9,295.8 459.9,304.9 525.4,261.3 "></polygon> <path class="st7" d="M245.4,139.7c5.3-0.5,10.5-1.9,15.3-4.3c0,0-1.3,8-4.6,11.5C252.8,150.4,248.5,147.1,245.4,139.7z"></path> <path class="st7" d="M390.5,66.3c6.2,1.5,12.6,1.9,18.9,1.3c0,0-3.7,8.2-8.4,10.6C396.4,80.6,392.1,75.3,390.5,66.3z"></path> <path class="st7" d="M314.8,299.3c6-0.9,11.8-2.9,17.1-5.8c0,0-0.4,8.7-3.7,12.6C324.9,309.9,319.3,306.8,314.8,299.3z"></path> <path class="st17" d="M126.4,37.9h60.7c8.5,0,15.5,6.9,15.5,15.5V114c0,8.5-6.9,15.5-15.5,15.5h-60.7c-8.5,0-15.5-6.9-15.5-15.5 V53.3C110.9,44.8,117.8,37.9,126.4,37.9z"></path> <polygon class="st17" points="182.6,145.2 182.6,121.7 156.8,121.7 "></polygon> <path class="st7" d="M141.9,72.3c3.4-3.4,8.9-3.4,12.4,0c0,0,0,0,0,0l2,2.1l2.1-2.1c3.5-3.3,9-3.2,12.4,0.3c3.2,3.4,3.2,8.7,0,12 l-2,2.1l0,0l-12.4,12.3L144,86.8l0,0l-2.1-2.1C138.5,81.3,138.5,75.8,141.9,72.3C141.9,72.4,141.9,72.4,141.9,72.3z"></path> <path class="st18" d="M536.1,122.7l-16.8-9.7c-7.3-4-15.4-3.3-18.2,1.6l-8.6,14.9c-2.7,4.8-2.5,9.8,4.9,20.4 c4,5.9,8.6,11.3,13.7,16.1L536.1,122.7z"></path> <path class="st19" d="M536,122.7l16.8,9.7c7.1,4.3,10.6,11.7,7.8,16.5l-8.6,14.9c-2.8,4.8-7.3,7.1-20.1,6.1c-7-0.5-14-1.7-20.8-3.8 L536,122.7z"></path> <path class="st20" d="M519.5,151.4l-43.4-53.7l1.6-2.2l111.4,64.2l-1.3,2.3L519.5,151.4z"></path> <path class="st18" d="M520.8,149.1l-43.4-53.7l68.2,10.6l43.5,53.7L520.8,149.1z"></path> <path class="st17" d="M555,170.9c-0.6-0.3-0.8-1.1-0.4-1.6l7.5-13l-27.2-33.6c-0.4-0.6-0.2-1.3,0.3-1.7c0.5-0.3,1.1-0.3,1.5,0.2 l27.7,34.2c0.3,0.4,0.4,0.9,0.1,1.4l-7.9,13.7C556.3,171.1,555.6,171.3,555,170.9C555,170.9,555,170.9,555,170.9z"></path> <path class="st21" d="M561.8,157c-0.1-0.1-0.2-0.2-0.3-0.3l-25.9-32c-0.4-0.5-0.3-1.2,0.2-1.6c0.5-0.4,1.2-0.3,1.6,0.2l0,0l25.9,32 c0.5,0.4,0.5,1.1,0.1,1.6C563,157.3,562.3,157.4,561.8,157z"></path> <path class="st20" d="M543.2,126.9c-1.3,2.3-5.1,2.6-8.4,0.6c-3.3-1.9-5-5.3-3.7-7.6c1.3-2.3,5.1-2.6,8.4-0.6 C542.9,121.2,544.5,124.6,543.2,126.9z"></path> <path class="st19" d="M542.7,125.4c-1,1.7-4.5,1.5-7.9-0.4c-3.4-1.9-5.3-4.9-4.4-6.6c1-1.7,4.5-1.5,7.9,0.4 C541.7,120.7,543.7,123.7,542.7,125.4z"></path> <path class="st17" d="M560.6,168.7c-1,1.8-3.4,2.4-5.2,1.4c-1.8-1-2.4-3.4-1.4-5.2c1-1.8,3.4-2.4,5.2-1.4c0,0,0,0,0,0 C561,164.5,561.7,166.8,560.6,168.7z"></path> <path class="st17" d="M555.4,174.3c-0.6,1-1.8,1.3-2.8,0.8l0,0c-1-0.6-1.3-1.8-0.8-2.8l3.7-6.4c0.6-1,1.8-1.3,2.8-0.8c0,0,0,0,0,0 l0,0c1,0.6,1.3,1.8,0.8,2.8L555.4,174.3z"></path> <path class="st17" d="M552.1,189.4c-0.7-2.1,0.6-5,4.1-13c0.9-1.9,0.2-4-1.4-5.2l0,0l0,0c-1.8-0.9-4-0.3-5.2,1.4 c-5.1,7.1-7.1,9.7-9.2,10.1c-1.5,1.5,0,5,3.7,7.1h0.1l0,0C547.8,192,551.6,191.5,552.1,189.4z"></path> <path class="st21" d="M550.8,175.1c0.8-1.1,2.1-1.8,3.4-1.9l1.6-2.7c-0.7-1.3-0.6-2.8,0.1-4c0.9-1.5,2.6-2.4,4.4-2.1 c-1.3-1.6-3.7-1.9-5.3-0.6c-0.4,0.3-0.7,0.7-1,1.1c-0.6,1.1-0.6,2.4,0,3.5l-1.4,2.4c-1.2,0.1-2.3,0.8-3.1,1.7 c-5.1,7.1-7.1,9.7-9.2,10.1c-0.8,0.8-0.7,2.3,0.2,3.8C542.9,185.9,545.1,183,550.8,175.1z"></path> </g> </svg> 